<?xml version="1.0" encoding="utf-8"?>
<!-- Generator: Adobe Illustrator 24.2.0, SVG Export Plug-In . SVG Version: 6.00 Build 0)  -->
<svg version="1.1" id="Layer_1" xmlns="http://www.w3.org/2000/svg" xmlns:xlink="http://www.w3.org/1999/xlink" x="0px" y="0px"
	 viewBox="0 0 1000 1000" style="enable-background:new 0 0 1000 1000;" xml:space="preserve">
<style type="text/css">
	.st0{fill:#0095DA;}
	.st1{fill:#00A5DF;}
	.st2{fill:#586365;}
</style>
<g>
	<path class="st0" d="M838.1,490.2c-7.1-0.9-11.5,0.6-16.5,3.5c-14,10.4-40.2,22.8-73.7,22.8c-52.6,0-99-35.9-105.9-97.5
		c0,0,116.3,47.5,200-6.2c19.1-12.3,26.6-27.5,24.2-46.9c-8.8-71.5-54.9-119.5-131.1-119.5c-87.6,0-154,63.9-154,161.8
		c0,91.1,66.4,161,163.1,161c49.3,0,85.8-20,104.1-32.8c5.2-4,9.6-10,10.5-17.6C860.7,504.4,851.9,492,838.1,490.2L838.1,490.2z
		 M209.7,532.2l-80.9-228.7c-1.7-4.4-3.3-11.7-3.4-17.3v-0.3c0-16.5,13.1-31.9,33.6-31.9h376.8c18.8,0,32.5,14.8,32.5,31.9
		c0,5.1-1.7,12-2.8,15.4l-82.1,230.9c-7.4,21-21.7,30.7-38.2,30.7h-2.3c-17,0-31.3-9.7-37.6-29.5l-36.3-110.5
		c0,0-4.3-15.7-22.3-15.7c-18.1,0-22.7,15.7-22.7,15.7l-36.6,110.5c-6.4,19.8-20.5,29.5-37.1,29.5h-2.3
		C230.8,562.9,216.5,553.2,209.7,532.2L209.7,532.2z"/>
	<path class="st1" d="M156.7,382.5c126.4-9.9,255.6-14.2,384.4-12.9l24.3-68.4c1-3.4,2.8-10.3,2.8-15.4c0-17.1-13.7-31.9-32.5-31.9
		H158.9c-20.5,0-33.6,15.4-33.6,31.9v0.3c0.1,5.7,1.7,12.9,3.4,17.3L156.7,382.5L156.7,382.5z M584.8,370.3
		c14.9-76.1,74.6-123.9,150.3-123.9c76.3,0,122.3,48.1,131.1,119.5c0.3,2.2,0.4,4.4,0.4,6.6c0,4.4-0.6,8.5-1.7,12.4
		C772.8,377,679,372.2,584.8,370.3L584.8,370.3z"/>
	<path class="st2" d="M318.5,720.4c0-20.2,28.2-21.5,43.2-21.5h5.5v4.6c0,15.8-11,33.9-28.9,33.9
		C325.2,737.4,318.5,728.8,318.5,720.4L318.5,720.4z M297.8,722.1c0,20,17.1,31.6,35.8,31.6c24.9,0,34.8-22.3,34.8-22.3h0.4
		c0,0-0.6,2.5-0.6,6.5v6.3c0,4.6,2.5,6.9,7,6.9h5.3c4.4,0,7-2.3,7-6.9v-60.4c0-26.9-15.4-41.4-41.9-41.4c-10.3,0-19,1.7-25.5,4.2
		c-7.3,2.8-8.3,4.5-8.3,10.3v3.9c0,1.2-0.2,3.5,1.9,4.6c2.2,1.1,4.5,0.1,12.2-2.5c5.1-1.7,11.7-3.4,17.9-3.4
		c13.1,0,23.2,5.9,23.2,23.4v2.7h-5.5C339.4,685.5,297.8,689,297.8,722.1L297.8,722.1z M802.8,744.1c0,4.6,2.5,7,7,7h6.5
		c4.6,0,7-2.3,7-7v-37c0-21,10.1-43.5,31-43.5c4.9,0,7.6-2.3,7.6-6.9v-5.9c0-4.6-1.9-6.9-6.7-6.9c-16,0-28,13.9-32.7,28H822
		c0,0,0.6-3.6,0.6-8v-12.2c0-4.6-2.3-6.9-7-6.9h-5.9c-4.4,0-7,2.3-7,6.9V744.1L802.8,744.1z M705.7,686.5
		c2.9-17.9,15.6-28.4,31.2-28.4c14.1,0,25.3,9.7,25.9,28.4H705.7L705.7,686.5z M684,697.9c0,31.6,23,55.8,56.5,55.8
		c17.1,0,29.7-6.9,36.1-11.4c3.6-2.1,4.2-5.7,2.1-9.3l-1.9-3.1c-2.3-4-5.5-4.4-9.5-2.3c-4.8,3.6-13.9,8.4-25.5,8.4
		c-19,0-35.6-12.8-36.9-36h71.3c4.2,0,7.2-3.4,7.2-7.2c0-29.7-16.4-50.7-46-50.7C707,642.1,684,664,684,697.9L684,697.9z
		 M631.3,744.1c0,4.6,2.5,7,6.9,7h6.5c4.6,0,7-2.3,7-7v-82.9h20.4c4.4,0,7-2.5,7-6.9v-2.7c0-4.4-2.5-6.9-7-6.9h-20.4v-3.2
		c0-19.8,12.4-21.7,20.2-22.1c4.9-0.4,7.4-2.3,7.4-7v-4c0-4.4-2.3-7-7-7h-2.5c-10.9,0-38.6,5.5-38.6,39.1v4h-6.8c-4.4,0-7,2.5-7,6.9
		v2.7c0,4.4,2.5,6.9,7,6.9h6.8V744.1L631.3,744.1z M530.8,742c5.9,4.4,18.1,11.6,35.8,11.6c23,0,38.4-13.3,38.4-31.3
		c0-36.2-55-28.6-55-49.9c0-9,7.8-13.5,17.9-13.5c10.1,0,17.3,3.6,21.7,6.1c4,1.9,7.2,1.5,9.3-2.3l1.9-3.2c2.1-3.8,1.5-7.4-2.3-9.2
		c-5.1-3.2-14.8-8.2-29.5-8.2c-20.9,0-38.6,10.5-38.6,30.7c0,36,55,29,55,49.9c0,9-7.6,14.1-18.1,14.1c-12.4,0-21.3-5.5-26.1-8.6
		c-4.2-2.3-7-2.1-9.7,1.5l-2.1,2.9C527,736.2,527.2,739.7,530.8,742L530.8,742z M413.5,744.1c0,4.6,2.5,7,6.9,7h6.5c4.6,0,7-2.3,7-7
		v-44c0-22.1,15-39.3,35.6-39.3c17.1,0,20,11.8,20,26.7v56.6c0,4.6,2.5,7,6.9,7h6.5c4.6,0,7-2.3,7-7v-61.2
		c0-27.1-11.4-40.8-36.5-40.8c-23.4,0-36.3,15.8-40.5,25h-0.4c0,0,0.6-3,0.6-6.1v-9.5c0-4.6-2.3-6.9-7-6.9h-5.9
		c-4.4,0-6.9,2.3-6.9,6.9V744.1L413.5,744.1z M236.5,744.1c0,4.6,2.5,7,7,7h6.5c4.6,0,7-2.3,7-7v-37c0-21,10.1-43.5,31-43.5
		c4.8,0,7.6-2.3,7.6-6.9v-5.9c0-4.6-1.9-6.9-6.7-6.9c-16,0-28,13.9-32.7,28h-0.4c0,0,0.6-3.6,0.6-8v-12.2c0-4.6-2.3-6.9-7-6.9h-5.9
		c-4.4,0-7,2.3-7,6.9V744.1L236.5,744.1z M167.6,661.2h-7.4c-4.4,0-6.7-2.5-6.7-6.9v-2.7c0-4.4,2.3-6.9,6.9-6.9h7.6v-22.3
		c0-4.6,2.5-7,7-7h6.1c4.6,0,7,2.3,7,7v22.3h20.6c4.6,0,7,2.5,7,6.9v2.7c0,4.4-2.3,6.9-6.7,6.9H188v48.4c0,20.2,12.4,23.3,20.2,24
		c5.5,0.4,7.4,2.1,7.4,6.9v4.4c0,4.8-2.7,6.9-8.4,6.9c-21.1,0-39.6-12.2-39.6-39.1V661.2L167.6,661.2z"/>
</g>
</svg>
